<svg xmlns="http://www.w3.org/2000/svg" viewBox="220 220 72 72" width="60" height="60">
	<path fill="#FBBA00" d="M255.86,220.43c-19.61,0-35.5,15.89-35.5,35.5s15.89,35.5,35.5,35.5c19.61,0,35.5-15.89,35.5-35.5
    S275.47,220.43,255.86,220.43z M255.92,286.48c-16.94,0-30.67-13.73-30.67-30.67c0-4.78,1.09-9.31,3.05-13.34
    c-0.01,0.6-1.05,10.95,6.24,15.76c5.64,3.73,11.49,3.27,11.49,3.27s-1.81,7.2-1.87,7.71c-1.3,6.1,3.64,7.33,5.37,7.47
    c1.73,0.14,3.11-0.25,3.88-0.47c3.01-0.97,3.08-1.24,4.11-1.96c0.72-0.51,2.24-2.55,1.4-3.27c-0.86-0.47-3.92,1.49-6.63,2.34
    c-1.38,0.43-2.95,0.41-4.2-1.4c-1.25-1.81,0.54-6.75,0.84-8.22c0.05-0.24,0.57-2.19,0.65-2.2c9.06-0.7,15.27-1.68,17.38-1.87
    c0.4-0.1,0.79,9.62-0.61,14.25c-1.19,3.94-1.68,6.07-6.29,12.32C258.7,286.39,257.32,286.48,255.92,286.48z M281.06,273.27
    c-2.52,4.93-8.82,9.17-15.04,11.58c0.89-1.54,3.17-6.07,4.39-12.19c1.22-6.12,0.34-13.07,0.14-13.27c0.49,0,5.23-0.46,7.94,1.46
    C281.7,263.14,283.3,268.88,281.06,273.27z M279.43,256.6c-4.27-1.87-7.83-1.53-10.04-1.4c0.08-0.1-3.32-5.74-2.71-7.87
    c0.61-2.13,1.78-3.29,1.62-4.78c-0.18-1.62-1.36-3.62-4.03-3.43c-2.67,0.19-3.04,3.12-3.19,3.7c-1.35,5.23,4.31,12.51,4.46,12.79
    c-4.32,0.58-11.74,1.93-15.59,2.04c0-0.37-0.18-3.76-0.18-4.79c0-1.63-0.53-6.28-2.94-10.6c-0.7-1-1.89-2.2-3.64-1.79
    c-2.25,0.52-2.85,3.29-2.48,4.92c0.41,1.8,3.08,3.88,3.78,4.76c0.7,0.89,1.49,3.04,1.63,3.88c0.01,0.21,0.67,3.37,0.49,3.74
    c-0.33,0.05-7.82,0.06-11.7-5c-0.93-1.03-2.71-3.42-2.8-9.9c-0.09-6.54,4.43-10.28,7.67-12.95c3.24-2.67,10.21-4.89,16.14-4.77
    c19.25,0.39,30.67,17.57,30.67,30.67c0,3.69-0.18,5.77-1.37,9.05C285.22,264.87,284.21,258.7,279.43,256.6z"/>
</svg>
