<?xml version="1.0" encoding="utf-8"?>
<svg version="1.1" id="fejlec_trimmed" xmlns="http://www.w3.org/2000/svg"
	 xmlns:xlink="http://www.w3.org/1999/xlink"
	 viewBox="120 15 150 35" xml:space="preserve">
<style type="text/css">
    .st0{fill:#FDC300;}
</style>
	<g>
	<path class="st0" d="M215.9,31.28c0.26-1.69-0.33-3.25-0.91-4.81c-0.43-1.15-1.22-2-2.25-2.63c-0.57-0.35-0.84-0.18-0.88,0.49
		c-0.01,0.25,0.03,0.51,0.04,0.77c0.02,1.53,0.2,3.08,0,4.58c-0.46,3.41,0.13,6.79,0.02,10.19c0,0.03,0,0.05,0.01,0.08
		c0.1,0.22,0.16,0.56,0.32,0.63c0.16,0.06,0.49-0.1,0.64-0.26c0.38-0.41,0.75-0.85,1.03-1.33C215.32,36.62,216.02,34.07,215.9,31.28
		 M209.72,45.65c0.07-1.55,0.21-3.11,0.19-4.66c-0.04-2.91-0.26-5.82-0.26-8.74c0-5.14,0.11-10.28,0.16-15.43
		c0.01-1.48-0.07-1.04-0.1-2.53c-0.01-0.53-0.06-1.1,0.08-1.6c0.1-0.35,0.48-0.87,0.75-0.88c0.39-0.01,0.94,0.27,1.17,0.6
		c0.25,0.36,0.28,0.91,0.28,1.38c0.01,1.04-0.09,1.35-0.1,2.39c-0.02,1.46,0.03,1.72,0,3.17c-0.02,0.93,0.29,1.68,1.09,2.13
		c5.69,3.27,6.38,11.17,4.56,15.41c-1.08,2.51-2.75,4.71-4.82,6.56c-0.62,0.55-1.11,1.15-0.87,2.05c0.13,0.51,0.03,0.97-0.44,1.18
		c-0.35,0.16-0.89,0.27-1.19,0.11c-0.35-0.19-0.53-0.69-0.79-1.06C209.52,45.73,209.62,45.69,209.72,45.65"/>
	<path class="st0" d="M231.15,28.47c-0.02,0-0.03-0.01-0.05-0.01c-0.01-0.26-0.02-0.51-0.04-0.77c-0.22-2.64-2.71-4.18-5.08-2.95
		c-2.29,1.18-3.53,4.35-2.12,6.95c0.11,0.2,0.27,0.42,0.46,0.5c0.93,0.4,1.85,0.94,2.82,1.09c2.06,0.32,3.23-0.57,3.71-2.62
		C231,29.95,231.05,29.21,231.15,28.47 M231.02,23.36c0.1-0.4,0.11-0.79,0.29-1.06c0.25-0.38,0.57-0.8,0.96-0.97
		c0.52-0.23,0.95,0.05,0.98,0.69c0.02,0.41,0.05,0.82,0.04,1.23c-0.08,2.88,0.37,5.75-0.08,8.65c-0.21,1.34,0.04,2.75,0.17,4.12
		c0.07,0.72-0.19,1.16-0.8,1.38c-0.63,0.22-1.13-0.1-1.37-0.67c-0.17-0.38-0.19-0.84-0.24-1.26c-0.1-0.75-0.41-1-1.07-0.7
		c-2.65,1.24-5.01,0.21-7.12-1.19c-1.88-1.25-2.05-3.37-1.73-5.47c0.28-1.82,1.2-3.23,2.83-4.15c0.44-0.25,0.88-0.52,1.32-0.78
		c1.57-0.94,3.19-0.97,4.84-0.25C230.36,23.05,230.65,23.19,231.02,23.36"/>
	<path class="st0" d="M139.47,17.42c0-0.9-0.04-1.79,0.02-2.68c0.03-0.4,0.16-0.94,0.44-1.14c0.31-0.23,0.97-0.35,1.25-0.16
		c0.31,0.21,0.51,0.81,0.51,1.24c0,1.43-0.12,2.86-0.18,4.29c-0.09,2.25,0.13,2.45,2.4,2.4c0.71-0.02,1.43-0.05,2.14-0.03
		c0.53,0.02,1.06,0.16,1.11,0.81c0.05,0.59-0.6,1.21-1.26,1.18c-0.84-0.03-1.68-0.15-2.52-0.23c-0.33-0.03-0.69-0.15-0.98-0.07
		c-0.29,0.08-0.61,0.34-0.73,0.6c-0.15,0.33-0.16,0.75-0.16,1.13c-0.02,3.47-0.07,6.95-0.01,10.42c0.04,2.71,0.24,5.41,0.33,8.12
		c0.02,0.49-0.03,1.08-0.3,1.45c-0.25,0.35-0.82,0.64-1.25,0.64c-0.57-0.01-0.94-0.52-0.93-1.12c0.01-0.79,0.12-1.58,0.15-2.37
		c0.03-1.07,0.03-2.14,0.04-3.21c0.01-1.07,0.01-2.15,0.01-3.22c-0.01-3.58-0.01-7.16-0.03-10.74c0-0.99-0.29-1.34-1.3-1.39
		c-0.86-0.04-1.73,0.02-2.6,0.06c-1.13,0.05-1.66-0.25-1.66-0.98c0-0.69,0.64-1,1.71-0.92c0.94,0.07,1.88,0.08,2.82,0.07
		c0.72-0.01,1.04-0.46,1.04-1.15c0-1,0-1.99,0-2.99H139.47z"/>
	<path class="st0" d="M169.19,26.06c0,0.66-0.01,1.21,0,1.76c0.04,1.81,0.11,3.62,0.12,5.43c0,0.57-0.13,1.16-0.84,1.28
		c-0.55,0.09-1.18-0.46-1.3-1.18c-0.08-0.47-0.02-0.97-0.02-1.45c0-1.32,0-2.65,0-3.97c0-0.64,0.01-1.28-0.03-1.91
		c-0.02-0.42-0.07-0.86-0.2-1.26c-0.24-0.76,0-1.29,0.79-1.26c0.69,0.02,1.42,0.2,2.04,0.5c1.69,0.83,3.38,1.68,4.96,2.69
		c1.97,1.27,3.84,2.7,5.75,4.07c0.35,0.25,0.69,0.53,1.05,0.77c0.86,0.58,1.25,0.46,1.26-0.55c0.02-1.53-0.12-3.05-0.21-4.58
		c-0.02-0.3-0.15-0.6-0.18-0.9c-0.09-0.7,0.26-1.18,0.91-1.27c0.75-0.1,1.32,0.27,1.34,1c0.06,2.45,0.06,4.91,0.09,7.36
		c0.01,0.48,0.08,0.96,0.05,1.43c-0.03,0.38-0.08,0.92-0.32,1.07c-0.29,0.19-0.89,0.19-1.19,0.01c-0.84-0.52-1.6-1.18-2.39-1.78
		c-2.2-1.66-4.41-3.29-6.9-4.52c-1.45-0.72-2.81-1.63-4.22-2.45C169.62,26.29,169.48,26.22,169.19,26.06"/>
	<path class="st0" d="M159.35,29.04c0.09-1.37-0.38-2.51-1.4-3.47c-1.17-1.1-2.79-0.51-4.07-1.15c-0.05-0.02-0.14,0.04-0.21,0.07
		c-1.51,0.56-2.57,1.65-3.34,3.01c-0.55,0.97-0.05,1.93,0.22,2.88c0.06,0.22,0.13,0.44,0.21,0.65c0.83,2.09,3.01,3.35,5.24,3.04
		c0.2-0.03,0.39-0.12,0.57-0.22C158.47,32.84,159.41,31.23,159.35,29.04 M155.12,22.56c1.43-0.05,2.69,0.17,3.56,1.42
		c0.18,0.25,0.56,0.34,0.82,0.54c1.92,1.48,2.59,3.36,1.99,5.75c-0.7,2.76-2.72,5.62-5.77,5.89c-1.58,0.14-3-0.29-4.24-1.21
		c-2.62-1.92-3.68-4.53-3.05-7.71c0.16-0.83,0.62-1.73,1.22-2.31C151.15,23.45,152.92,22.41,155.12,22.56"/>
	<path class="st0" d="M197.43,28.06c2.04,0,4.8,0,6.84,0c0.26,0,0.51-0.01,0.77,0.01c0.52,0.03,0.99,0.18,1.01,0.81
		c0.02,0.61-0.27,1.07-0.89,1.15c-0.89,0.11-2.5,0.18-3.4,0.16c-2.04-0.03-4.09-0.16-6.13-0.18c-1.2-0.01-1.4,0.27-1.12,1.46
		c0.52,2.23,1.74,3.82,4.1,4.36c0.41,0.09,0.86,0.25,1.16,0.52c0.21,0.19,0.33,0.67,0.24,0.95c-0.07,0.22-0.53,0.5-0.76,0.46
		c-0.89-0.17-1.85-0.29-2.61-0.73c-2.37-1.4-4.05-3.4-4.75-6.13c-0.26-1.03-0.46-1.13-1.51-0.99c-0.45,0.06-0.92,0.06-1.38,0.05
		c-0.49-0.01-0.95-0.11-0.97-0.73c-0.02-0.59,0.28-1.02,0.86-1.1c0.55-0.08,1.12-0.02,1.68,0c1.28,0.03,1.43-0.02,1.82-1.17
		c0.94-2.76,2.95-4.48,5.46-5.71c0.86-0.42,1.43-0.33,1.7,0.18c0.34,0.65,0,1.7-0.73,2.04c-0.41,0.19-0.87,0.28-1.31,0.41
		c-1.57,0.45-2.51,1.51-2.91,3.05c-0.22,0.85,0.05,1.13,0.92,1.12c0.64-0.01,1.28,0,1.92,0V28.06z"/>
	<path class="st0" d="M129.33,18.77c1.85-0.05,2.27,0.37,1.97,1.36c-0.23,0.75-0.87,0.87-1.49,0.75c-2.3-0.46-4.76,2.66-3.72,4.78
		c0.57,1.16,1.32,2.23,2.09,3.27c0.62,0.84,1.36,1.6,2.1,2.34c1.74,1.74,1.21,5.23-0.43,6.68c-1.13,1-2.4,1.73-3.91,1.96
		c-0.13,0.02-0.26,0.05-0.38,0.04c-0.6-0.05-1.26-0.1-1.41-0.81c-0.16-0.75,0.45-1.01,1.02-1.22c0.41-0.15,0.84-0.22,1.25-0.35
		c2.59-0.79,3.45-4.12,1.57-6.08c-0.92-0.96-1.87-1.89-2.74-2.9c-0.84-0.97-1.28-2.15-1.45-3.41c-0.29-2.18,0.86-3.73,2.42-5
		C127.28,19.33,128.54,18.82,129.33,18.77"/>
	<path class="st0" d="M255.69,18.77c1.85-0.05,2.27,0.37,1.97,1.36c-0.23,0.75-0.87,0.87-1.49,0.75c-2.3-0.46-4.76,2.66-3.72,4.78
		c0.57,1.16,1.32,2.23,2.09,3.27c0.62,0.84,1.36,1.6,2.1,2.34c1.74,1.74,1.21,5.23-0.43,6.68c-1.13,1-2.4,1.73-3.91,1.96
		c-0.13,0.02-0.26,0.05-0.38,0.04c-0.6-0.05-1.26-0.1-1.41-0.81c-0.16-0.75,0.45-1.01,1.02-1.22c0.41-0.15,0.84-0.22,1.25-0.35
		c2.59-0.79,3.45-4.12,1.57-6.08c-0.92-0.96-1.87-1.89-2.74-2.9c-0.84-0.97-1.28-2.15-1.45-3.41c-0.29-2.18,0.86-3.73,2.42-5
		C253.64,19.33,254.9,18.82,255.69,18.77"/>
	<path class="st0" d="M243.65,22.43c0.55,0.08,1.11,0.11,1.65,0.24c0.62,0.15,0.87,0.66,0.81,1.23c-0.07,0.62-0.62,0.67-1.13,0.65
		c-0.23-0.01-0.46-0.04-0.67-0.12c-0.97-0.35-1.66,0.01-2.27,0.76c-0.66,0.81-0.87,1.72-0.29,2.54c0.59,0.84,1.42,1.5,2.14,2.24
		c0.58,0.59,1.32,1.1,1.73,1.79c0.94,1.63,0.48,2.96-1.2,3.81c-0.61,0.31-1.27,0.54-1.93,0.68c-0.37,0.08-0.87,0.01-1.16-0.2
		c-0.34-0.25-0.67-0.71-0.72-1.12c-0.07-0.56,0.49-0.7,0.96-0.76c0.41-0.05,0.84,0,1.22-0.12c0.33-0.1,0.78-0.32,0.87-0.59
		c0.11-0.31-0.01-0.83-0.23-1.09c-0.41-0.48-0.94-0.86-1.45-1.24c-1.01-0.74-1.8-1.64-2.38-2.76c-0.65-1.27-0.55-2.52-0.05-3.78
		c0.53-1.35,1.69-1.84,3.02-2.03c0.35-0.05,0.71-0.05,1.07-0.07C243.64,22.48,243.64,22.46,243.65,22.43"/>
</g>
</svg>
